<svg width="66" height="25" viewBox="0 0 66 25" fill="none" xmlns="http://www.w3.org/2000/svg">
<g clip-path="url(#clip0_68_82)">
<rect y="0.446289" width="65.625" height="24.1071" rx="4" fill="#E2E8F0"/>
<path d="M0 4.44629C0 2.23715 1.79086 0.446289 4 0.446289H24.7642V24.5534H4C1.79086 24.5534 0 22.7626 0 20.5534V4.44629Z" fill="#2050E0"/>
<path d="M12.3821 4.0625L12.6629 4.94721H13.5717L12.8365 5.49397L13.1173 6.37868L12.3821 5.83157L11.647 6.37868L11.9278 5.49397L11.1924 4.94721H12.1012L12.3821 4.0625Z" fill="#F8D12E"/>
<path d="M12.3821 18.6211L12.6629 19.5061H13.5717L12.8365 20.0527L13.1173 20.9373L12.3821 20.3906L11.647 20.9373L11.9278 20.0527L11.1924 19.5061H12.1012L12.3821 18.6211Z" fill="#F8D12E"/>
<path d="M16.1209 5.38574L16.4016 6.27044H17.3106L16.5752 6.81742L16.8561 7.70192L16.1209 7.15494L15.3856 7.70192L15.6664 6.81742L14.9313 6.27044H15.8402L16.1209 5.38574Z" fill="#F8D12E"/>
<path d="M19.1438 14.9111L19.4244 15.7961H20.3333L19.598 16.3429L19.879 17.2273L19.1438 16.6808L18.4084 17.2273L18.6893 16.3429L17.954 15.7961H18.8629L19.1438 14.9111Z" fill="#F8D12E"/>
<path d="M19.8599 11.3418L20.1406 12.2264H21.0495L20.3142 12.7731L20.595 13.658L19.8599 13.1115L19.1246 13.658L19.4056 12.7731L18.6702 12.2264H19.5789L19.8599 11.3418Z" fill="#F8D12E"/>
<path d="M4.90442 11.3418L5.18512 12.2264H6.0939L5.35857 12.7731L5.63961 13.658L4.90442 13.1115L4.16904 13.658L4.44993 12.7731L3.7146 12.2264H4.62353L4.90442 11.3418Z" fill="#F8D12E"/>
<path d="M5.52356 14.9111L5.80426 15.7961H6.71304L5.9779 16.3429L6.25855 17.2273L5.52356 16.6808L4.78823 17.2273L5.06907 16.3429L4.33374 15.7961H5.24272L5.52356 14.9111Z" fill="#F8D12E"/>
<path d="M19.1438 7.67871L19.4244 8.56371H20.3333L19.598 9.11043L19.879 9.99489L19.1438 9.44836L18.4084 9.99489L18.6893 9.11043L17.954 8.56371H18.8629L19.1438 7.67871Z" fill="#F8D12E"/>
<path d="M5.83313 7.67871L6.11383 8.56371H7.02261L6.28747 9.11043L6.56812 9.99489L5.83313 9.44836L5.0978 9.99489L5.37864 9.11043L4.64331 8.56371H5.55229L5.83313 7.67871Z" fill="#F8D12E"/>
<path d="M16.8008 17.96L17.0815 18.8445H17.9904L17.2549 19.3916L17.5359 20.2761L16.8008 19.7295L16.0653 20.2761L16.3464 19.3916L15.6111 18.8445H16.52L16.8008 17.96Z" fill="#F8D12E"/>
<path d="M8.64317 5.38574L8.92381 6.27044H9.83279L9.09746 6.81742L9.3785 7.70192L8.64317 7.15494L7.90798 7.70192L8.18882 6.81742L7.45349 6.27044H8.36228L8.64317 5.38574Z" fill="#F8D12E"/>
<path d="M7.96326 17.96L8.24408 18.845H9.15298L8.41771 19.3915L8.69853 20.2761L7.96326 19.7298L7.22813 20.2761L7.50895 19.3915L6.77368 18.845H7.68239L7.96326 17.96Z" fill="#F8D12E"/>
<path fill-rule="evenodd" clip-rule="evenodd" d="M29.0979 9.84593C29.0979 11.5479 30.4371 12.6157 32.0823 12.6157C33.1239 12.6157 33.9258 12.2062 34.521 11.572V9.47663H31.8591V10.6247H33.1239V11.0743C32.9007 11.2509 32.5122 11.3954 32.0823 11.3954C31.1812 11.3954 30.5446 10.721 30.5446 9.84593C30.5446 8.97085 31.1812 8.29647 32.0823 8.29647C32.6031 8.29647 33.0247 8.57746 33.2479 8.93071L34.4384 8.32056C34.0333 7.65421 33.2893 7.07617 32.0823 7.07617C30.4371 7.07617 29.0979 8.14393 29.0979 9.84593ZM35.356 12.5193V7.16448H37.6707C39.4068 7.16448 40.6551 8.17605 40.6551 9.8379C40.6551 11.4998 39.4068 12.5193 37.679 12.5193H35.356ZM36.7779 11.3151H37.6707C38.638 11.3151 39.2001 10.6327 39.2001 9.8379C39.2001 9.01099 38.6876 8.36873 37.679 8.36873H36.7779V11.3151ZM41.3661 12.5193V7.16448H44.1272C45.3673 7.16448 46.0452 7.97534 46.0452 8.94676C46.0452 9.91016 45.3673 10.705 44.1272 10.705H42.788V12.5193H41.3661ZM44.5985 8.93873C44.5985 8.56943 44.3174 8.32858 43.9371 8.32858H42.788V9.53283H43.9371C44.3174 9.53283 44.5985 9.30001 44.5985 8.93873ZM49.757 12.5193L48.8311 10.705H48.1036V12.5193H46.6817V7.16448H49.4429C50.6664 7.16448 51.3608 7.95125 51.3608 8.94676C51.3608 9.87804 50.7739 10.3758 50.2613 10.5524L51.3856 12.5193H49.757ZM49.9141 8.93071C49.9141 8.5614 49.6 8.32858 49.228 8.32858H48.1036V9.53283H49.228C49.6 9.53283 49.9141 9.30001 49.9141 8.93071Z" fill="#2B3945"/>
<path fill-rule="evenodd" clip-rule="evenodd" d="M14.0625 11.9792H14.3278C14.6208 11.9792 14.8585 12.2185 14.8585 12.5134V14.6502C14.8585 14.9451 14.6208 15.1844 14.3278 15.1844H10.4363C10.1433 15.1844 9.90564 14.9451 9.90564 14.6502V12.5134C9.90564 12.2185 10.1433 11.9792 10.4363 11.9792H10.7016V11.1779C10.7016 10.2453 11.4556 9.48633 12.3821 9.48633C13.3085 9.48633 14.0625 10.2453 14.0625 11.1779V11.9792ZM11.5861 11.1779V11.9792H13.178V11.1779C13.178 10.7361 12.821 10.3767 12.3821 10.3767C11.9432 10.3767 11.5861 10.7361 11.5861 11.1779Z" fill="white"/>
<path d="M32.2811 16.4249C32.2548 16.342 32.2187 16.2658 32.1727 16.1963C32.1266 16.1268 32.0675 16.0666 31.9951 16.0158C31.9228 15.965 31.8373 15.9262 31.7387 15.8995C31.6434 15.8701 31.5316 15.8554 31.4034 15.8554C31.216 15.8554 31.0533 15.8861 30.9152 15.9476C30.7804 16.0091 30.6703 16.092 30.5848 16.1963C30.4993 16.2979 30.4352 16.4142 30.3925 16.5452C30.353 16.6762 30.3333 16.8099 30.3333 16.9463C30.3333 17.0827 30.353 17.2163 30.3925 17.3474C30.4352 17.4784 30.4993 17.596 30.5848 17.7003C30.6703 17.8019 30.7804 17.8835 30.9152 17.945C31.0533 18.0064 31.216 18.0372 31.4034 18.0372C31.5415 18.0372 31.6631 18.0185 31.7683 17.981C31.8735 17.9409 31.9639 17.8875 32.0395 17.8206C32.1151 17.7511 32.1743 17.6709 32.217 17.58C32.2598 17.4891 32.2877 17.3915 32.3009 17.2872H32.9025C32.8893 17.4583 32.8433 17.6147 32.7644 17.7564C32.6888 17.8982 32.5852 18.0212 32.4537 18.1254C32.3222 18.227 32.1677 18.3059 31.9902 18.3621C31.8127 18.4182 31.6171 18.4463 31.4034 18.4463C31.1404 18.4463 30.9037 18.4075 30.6933 18.33C30.4862 18.2498 30.3103 18.1415 30.1657 18.0051C30.021 17.8687 29.9092 17.7097 29.8303 17.5278C29.7547 17.346 29.7169 17.1522 29.7169 16.9463C29.7169 16.7431 29.7547 16.5506 29.8303 16.3687C29.9092 16.1869 30.021 16.0278 30.1657 15.8915C30.3103 15.7551 30.4862 15.6468 30.6933 15.5666C30.9037 15.4864 31.1404 15.4463 31.4034 15.4463C31.6006 15.4463 31.7864 15.469 31.9606 15.5145C32.1349 15.5573 32.2877 15.6214 32.4192 15.707C32.554 15.7899 32.6625 15.8915 32.7447 16.0118C32.8269 16.1321 32.8778 16.2698 32.8975 16.4249H32.2811Z" fill="#2B3945"/>
<path d="M35.0854 15.8554C34.898 15.8554 34.7353 15.8861 34.5972 15.9476C34.4624 16.0091 34.3523 16.092 34.2668 16.1963C34.1814 16.2979 34.1173 16.4142 34.0745 16.5452C34.0351 16.6762 34.0153 16.8099 34.0153 16.9463C34.0153 17.0827 34.0351 17.2163 34.0745 17.3474C34.1173 17.4784 34.1814 17.596 34.2668 17.7003C34.3523 17.8019 34.4624 17.8835 34.5972 17.945C34.7353 18.0064 34.898 18.0372 35.0854 18.0372C35.2728 18.0372 35.4339 18.0064 35.5687 17.945C35.7067 17.8835 35.8185 17.8019 35.904 17.7003C35.9895 17.596 36.0519 17.4784 36.0914 17.3474C36.1341 17.2163 36.1555 17.0827 36.1555 16.9463C36.1555 16.8099 36.1341 16.6762 36.0914 16.5452C36.0519 16.4142 35.9895 16.2979 35.904 16.1963C35.8185 16.092 35.7067 16.0091 35.5687 15.9476C35.4339 15.8861 35.2728 15.8554 35.0854 15.8554ZM35.0854 15.4463C35.3484 15.4463 35.5835 15.4864 35.7906 15.5666C36.001 15.6468 36.1785 15.7551 36.3231 15.8915C36.4678 16.0278 36.5779 16.1869 36.6535 16.3687C36.7324 16.5506 36.7719 16.7431 36.7719 16.9463C36.7719 17.1522 36.7324 17.346 36.6535 17.5278C36.5779 17.7097 36.4678 17.8687 36.3231 18.0051C36.1785 18.1415 36.001 18.2498 35.7906 18.33C35.5835 18.4075 35.3484 18.4463 35.0854 18.4463C34.8224 18.4463 34.5857 18.4075 34.3753 18.33C34.1682 18.2498 33.9923 18.1415 33.8477 18.0051C33.703 17.8687 33.5913 17.7097 33.5124 17.5278C33.4368 17.346 33.3989 17.1522 33.3989 16.9463C33.3989 16.7431 33.4368 16.5506 33.5124 16.3687C33.5913 16.1869 33.703 16.0278 33.8477 15.8915C33.9923 15.7551 34.1682 15.6468 34.3753 15.5666C34.5857 15.4864 34.8224 15.4463 35.0854 15.4463Z" fill="#2B3945"/>
<path d="M37.4463 15.5145H38.3142L39.2856 17.7564H39.2955L40.2423 15.5145H41.1003V18.3781H40.5135V16.1682H40.5036L39.5273 18.3781H39.0194L38.043 16.1682H38.0331V18.3781H37.4463V15.5145Z" fill="#2B3945"/>
<path d="M41.9617 15.5145H43.515C43.7648 15.5145 43.9687 15.5439 44.1265 15.6027C44.2843 15.6615 44.4059 15.7351 44.4914 15.8233C44.5768 15.9115 44.6344 16.0078 44.664 16.1121C44.6968 16.2163 44.7133 16.3126 44.7133 16.4008C44.7133 16.4891 44.6968 16.5853 44.664 16.6896C44.6344 16.7912 44.5768 16.8861 44.4914 16.9744C44.4059 17.0626 44.2843 17.1361 44.1265 17.195C43.9687 17.2511 43.7648 17.2792 43.515 17.2792H42.5781V18.3781H41.9617V15.5145ZM42.5781 16.8701H43.4805C43.5495 16.8701 43.6202 16.8621 43.6925 16.846C43.7648 16.83 43.8306 16.8046 43.8898 16.7698C43.9522 16.7324 44.0015 16.6843 44.0377 16.6254C44.0771 16.5639 44.0969 16.4877 44.0969 16.3968C44.0969 16.3032 44.0804 16.2257 44.0476 16.1642C44.0147 16.1027 43.9703 16.0546 43.9144 16.0198C43.8585 15.9824 43.7944 15.957 43.7221 15.9436C43.6498 15.9302 43.5725 15.9236 43.4903 15.9236H42.5781V16.8701Z" fill="#2B3945"/>
<path d="M45.374 15.5145H45.9904V17.945H47.7804V18.3781H45.374V15.5145Z" fill="#2B3945"/>
<path d="M48.3289 15.5145H48.9453V18.3781H48.3289V15.5145Z" fill="#2B3945"/>
<path d="M50.7665 15.5145H51.4223L52.7784 18.3781H52.1176L51.7872 17.6201H50.3818L50.0515 18.3781H49.4153L50.7665 15.5145ZM50.5495 17.2391H51.6245L51.0969 16.0078H51.0821L50.5495 17.2391Z" fill="#2B3945"/>
<path d="M53.2123 15.5145H53.8632L55.4708 17.6241H55.4807V15.5145H56.0675V18.3781H55.4166L53.8139 16.2725H53.7991V18.3781H53.2123V15.5145Z" fill="#2B3945"/>
<path d="M56.5837 15.5145H59.4339V15.9476H58.3145V18.3781H57.6981V15.9476H56.5837V15.5145Z" fill="#2B3945"/>
</g>
<defs>
<clipPath id="clip0_68_82">
<rect width="65.625" height="24.1071" fill="white" transform="translate(0 0.446289)"/>
</clipPath>
</defs>
</svg>
